<svg id="Group_33" data-name="Group 33" xmlns="http://www.w3.org/2000/svg" xmlns:xlink="http://www.w3.org/1999/xlink" width="26" height="18.376" viewBox="0 0 26 18.376">
  <defs>
    <clipPath id="clip-path">
      <rect id="Rectangle_90" data-name="Rectangle 90" width="26" height="18.376" fill="#101010"/>
    </clipPath>
  </defs>
  <g id="Group_32" data-name="Group 32" transform="translate(0 0)" clip-path="url(#clip-path)">
    <path id="Path_57" data-name="Path 57" d="M11.9,0h4.236c.912,0,1.759.065,2.672.065S20.628.13,21.54.2a9.722,9.722,0,0,1,1.368.13,3.163,3.163,0,0,1,2.346,1.89A7.534,7.534,0,0,1,25.776,4.3c.065.977.2,1.89.2,2.867.065,1.238,0,2.476,0,3.779,0,.847-.065,1.629-.13,2.476a10.208,10.208,0,0,1-.326,1.955,4.072,4.072,0,0,1-.652,1.434,3.261,3.261,0,0,1-2.411,1.238c-.782.065-1.564.13-2.346.13-1.043.065-2.02.065-3.063.13-.977,0-1.955,0-3,.065H10.593c-.782,0-1.629,0-2.411-.065-1.043,0-2.085-.065-3.063-.13A7.168,7.168,0,0,1,3.1,17.92,3.061,3.061,0,0,1,.688,15.9a7.531,7.531,0,0,1-.456-2.02c-.065-.912-.2-1.825-.2-2.737A45.317,45.317,0,0,1,.232,4.5a7.01,7.01,0,0,1,.456-2.02A3.129,3.129,0,0,1,2.773.521,7.084,7.084,0,0,1,4.468.261C5.315.2,6.227.2,7.074.13,8.052.065,9.094.065,10.137.065A15.879,15.879,0,0,0,11.9,0h0M17.3,8.927c-2.346-1.238-4.692-2.476-7.038-3.649v7.3c2.346-1.238,4.627-2.476,7.038-3.649" transform="translate(0 0)" fill="#101010"/>
  </g>
</svg>
