<svg xmlns="http://www.w3.org/2000/svg" width="24.659" height="26" viewBox="0 0 24.659 26">
  <g id="_x32_5UqUB.tif" transform="translate(-3.5 -2.987)">
    <g id="Group_154" data-name="Group 154" transform="translate(3.5 2.987)">
      <path id="Path_2588" data-name="Path 2588" d="M3.5,16.285v-3.32l.433-1.732A12.44,12.44,0,0,1,15.48,3.006a12.535,12.535,0,0,1,6.784,1.732,10.931,10.931,0,0,1,2.021,18.043,10.842,10.842,0,0,1-6.062,2.887,20.661,20.661,0,0,1-4.186.144,1.941,1.941,0,0,0-1.3.289c-1.155.866-2.454,1.732-3.609,2.6-.289.144-.577.144-.866.289,0-.289-.144-.433-.144-.722V24.224a2.565,2.565,0,0,0-.577-1.443A19.184,19.184,0,0,1,4.51,19.028,8.936,8.936,0,0,1,3.5,16.285Zm12.413-.722c-1.3-.144-1.3-.144-2.021.722a2.788,2.788,0,0,1-3.609.722A2.711,2.711,0,0,1,8.841,14.12a3.068,3.068,0,0,1,2.309-2.6,2.613,2.613,0,0,1,2.887,1.155c.577.866,1.155.722,1.876.577-.144-2.021-2.309-3.753-5.052-3.32-2.021.289-3.9,1.876-3.753,5.052a4.341,4.341,0,0,0,4.908,3.9A3.8,3.8,0,0,0,15.913,15.563Zm3.32,3.32V15.275a1.306,1.306,0,1,1,2.6,0v3.609h1.588c0-1.588.144-3.176,0-4.619A1.923,1.923,0,0,0,21.4,12.532a11.507,11.507,0,0,0-2.165.433V10.078H17.79v8.949A4.45,4.45,0,0,1,19.233,18.883Z" transform="translate(-3.5 -2.987)"/>
    </g>
  </g>
</svg>
