<svg xmlns="http://www.w3.org/2000/svg" width="30.843" height="26" viewBox="0 0 30.843 26">
  <g id="icon-social-blog" transform="translate(-2.3 -2.1)">
    <path id="Path_2580" data-name="Path 2580" d="M171.345,103.377a2.306,2.306,0,0,0-2.368-1.415c0,.567-.006,1.134.006,1.708,0,.044.081.106.137.125a.78.78,0,0,1,.53.53,4.963,4.963,0,0,1,.187,1.128c.019,1.421.006,2.848.006,4.269v.33h1.826c.006-.075.012-.125.012-.175,0-1.689.025-3.384-.012-5.073A3.876,3.876,0,0,0,171.345,103.377Z" transform="translate(-156.572 -93.854)" fill="none"/>
    <path id="Path_2581" data-name="Path 2581" d="M239.33,141.886a3.452,3.452,0,0,0-2.032-.686c-.293.031-.586.05-.873.1a2.89,2.89,0,0,0-.474,5.6,3.992,3.992,0,0,0,2.873-.243C240.907,145.712,240.67,142.926,239.33,141.886Zm-2.206,3.5a1.222,1.222,0,1,1,1.234-1.222A1.242,1.242,0,0,1,237.124,145.388Z" transform="translate(-217.677 -130.709)" fill="none"/>
    <path id="Path_2582" data-name="Path 2582" d="M61.419,107.529c-.056.044-.118.087-.218.156V104.7H59.3v7.915h1.913v-.586a1.918,1.918,0,0,0,1.078.748,2.652,2.652,0,0,0,2.537-.891,3.184,3.184,0,0,0,.243-3.6A2.37,2.37,0,0,0,61.419,107.529Zm1,3.633a1.222,1.222,0,1,1,1.228-1.228A1.23,1.23,0,0,1,62.416,111.163Z" transform="translate(-53.448 -96.436)" fill="none"/>
    <path id="Path_2583" data-name="Path 2583" d="M358.527,141.448H356.67v.393a5.392,5.392,0,0,0-1-.511,2.531,2.531,0,0,0-3.228,2.038,4.479,4.479,0,0,0-.006,1.384,2.473,2.473,0,0,0,2.942,2.212,2.167,2.167,0,0,0,1.284-.654,2.008,2.008,0,0,1-.231,1.359c-.355.5-.9.43-1.421.442v1.714a10.536,10.536,0,0,0,1.109-.062,2.535,2.535,0,0,0,2.231-1.826,4.412,4.412,0,0,0,.156-1.246c.019-1.658.006-3.309.006-4.967A1.932,1.932,0,0,0,358.527,141.448Zm-2.985,3.964a1.226,1.226,0,0,1-1.228-1.228,1.225,1.225,0,1,1,2.449.019A1.237,1.237,0,0,1,355.541,145.411Z" transform="translate(-329.061 -130.775)" fill="none"/>
    <g id="Group_155" data-name="Group 155" transform="translate(2.3 2.1)">
      <path id="Path_2584" data-name="Path 2584" d="M90.815,169.1a1.222,1.222,0,1,0,1.24,1.209A1.225,1.225,0,0,0,90.815,169.1Z" transform="translate(-84.307 -158.978)"/>
      <path id="Path_2585" data-name="Path 2585" d="M384.534,169.1a1.213,1.213,0,0,0-1.234,1.215,1.225,1.225,0,1,0,1.234-1.215Z" transform="translate(-360.2 -158.978)"/>
      <path id="Path_2586" data-name="Path 2586" d="M266.315,169.1a1.222,1.222,0,0,0,.006,2.443,1.222,1.222,0,1,0-.006-2.443Z" transform="translate(-249.166 -158.979)"/>
      <path id="Path_2587" data-name="Path 2587" d="M28.744,2.1H6.705A4.408,4.408,0,0,0,2.3,6.505V19.034A4.4,4.4,0,0,0,6.705,23.44h7.881l2.43,4.223a.827.827,0,0,0,1.452.012l2.479-4.235h7.79a4.4,4.4,0,0,0,4.405-4.405V6.505A4.4,4.4,0,0,0,28.744,2.1ZM11.25,15.407a2.57,2.57,0,0,1-2.467.869,1.829,1.829,0,0,1-1.051-.723v.571H5.873V8.437H7.714v2.9c.091-.067.152-.109.207-.152a2.308,2.308,0,0,1,3.555.729A3.076,3.076,0,0,1,11.25,15.407Zm2.1-3.743a4.842,4.842,0,0,0-.182-1.094.772.772,0,0,0-.516-.516c-.055-.018-.134-.079-.134-.122-.006-.553-.006-1.106-.006-1.659a2.24,2.24,0,0,1,2.3,1.373,4.035,4.035,0,0,1,.316,1.379c.036,1.641.018,3.281.012,4.928,0,.049-.006.1-.012.17H13.353v-.316C13.359,14.423,13.371,13.043,13.353,11.664Zm7.814,4.278a3.876,3.876,0,0,1-2.8.237,2.7,2.7,0,0,1-1.908-3.032,2.694,2.694,0,0,1,2.37-2.412c.28-.049.565-.067.851-.1a3.447,3.447,0,0,1,1.975.668A2.808,2.808,0,0,1,21.167,15.942Zm8.4.006a4.459,4.459,0,0,1-.152,1.209,2.481,2.481,0,0,1-2.169,1.774,10.268,10.268,0,0,1-1.082.061V17.327c.5-.012,1.033.055,1.379-.425a1.945,1.945,0,0,0,.219-1.319,2.1,2.1,0,0,1-1.246.638,2.4,2.4,0,0,1-2.856-2.145,4.327,4.327,0,0,1,.006-1.343A2.463,2.463,0,0,1,26.8,10.752a5.455,5.455,0,0,1,.972.5v-.383h1.8v.267C29.57,12.733,29.582,14.344,29.564,15.948Z" transform="translate(-2.3 -2.1)"/>
    </g>
  </g>
</svg>
