<?xml version="1.0" encoding="utf-8"?>
<!-- Generator: Adobe Illustrator 26.4.0, SVG Export Plug-In . SVG Version: 6.00 Build 0)  -->
<svg version="1.1" id="Layer_1" xmlns="http://www.w3.org/2000/svg" xmlns:xlink="http://www.w3.org/1999/xlink" x="0px" y="0px"
	 viewBox="0 0 40.3 24.7" style="enable-background:new 0 0 40.3 24.7;" xml:space="preserve">
<style type="text/css">
	.st0{fill:#231F20;}
</style>
<g id="svg_83">
	<path id="svg_84" class="st0" d="M1.8,2c1.1,0.6,15.7,8.6,16.3,8.9c0.5,0.3,1.1,0.4,2,0.4s1.4-0.1,2-0.4c0.5-0.3,15.2-8.3,16.3-8.9
		c0.4-0.2,1.1-0.6,1.2-1c0.2-0.7,0-1-1.1-1H20.1H1.7C0.6,0,0.4,0.3,0.6,1C0.8,1.5,1.4,1.8,1.8,2z"/>
	<path id="svg_85" class="st0" d="M39.2,2.5c-0.8,0.4-7.9,5.4-12.5,8.5l7.9,8.9c0.2,0.2,0.3,0.4,0.2,0.5s-0.4,0-0.6-0.1l-9.5-8
		c-1.4,0.9-2.4,1.6-2.6,1.7c-0.7,0.4-1.3,0.4-2,0.4s-1.2,0-2-0.4c-0.2-0.1-1.2-0.7-2.6-1.7l-9.5,8c-0.2,0.2-0.5,0.2-0.6,0.1
		s0-0.3,0.2-0.5l7.9-8.9C8.8,8,1.7,2.9,0.9,2.5S0,2.6,0,3s0,19.7,0,19.7c0,0.9,1.3,2,2.3,2h17.8h17.8c0.9,0,2.1-1.1,2.1-2
		c0,0,0-19.3,0-19.7C40,2.5,40.1,2,39.2,2.5z"/>
</g>
</svg>
